<?xml version="1.0" encoding="UTF-8"?>
<svg id="Layer_1" data-name="Layer 1" xmlns="http://www.w3.org/2000/svg" viewBox="0 0 1629.48 630.71">
  <defs>
    <style>
      .cls-1 {
        fill: #fff;
        stroke-width: 0px;
      }
    </style>
  </defs>
  <g>
    <g>
      <path class="cls-1" d="M690.64,317.71c-.77-.31-.92-.92-.92-1.69s.15-1.23.92-1.7l62.34-24.16,5.67-14.35-72.94,28.79c-4.93,2.01-6.78,5.55-6.78,11.41s1.85,9.56,6.78,11.4l45.5,17.87,4.06-10.29-44.63-17.29Z"/>
      <path class="cls-1" d="M807.89,261.92c-10.95,0-18.04,3.7-21.89,13.41l-26.96,68.26-4.1,10.39-5.46,13.83h20.04l32.98-83.69c1.08-2.47,2.77-3.55,5.24-3.55s4.16,1.08,5.09,3.55l31.6,83.69h20.19l-35.14-92.48c-3.7-9.71-10.79-13.41-21.58-13.41Z"/>
    </g>
    <path class="cls-1" d="M871.17,263.77l29.13,44.54,29.44-44.54h21.58l-41.92,59.19v44.85h-18.34v-44.85l-41.93-59.19h22.04Z"/>
    <path class="cls-1" d="M1014.31,263.77c30.21,0,47.01,17.26,47.01,52.25s-16.64,51.79-47.01,51.79h-14.18c-30.36,0-47.01-16.95-47.01-51.79s16.8-52.25,47.01-52.25h14.18ZM1000.14,281.95c-20.04,0-28.82,10.17-28.82,34.06s8.63,33.6,28.82,33.6h14.18c20.04,0,28.67-9.86,28.67-33.76s-8.63-33.91-28.67-33.91h-14.18Z"/>
    <g>
      <polygon class="cls-1" points="1419.63 276.98 1428.58 250.55 1412.86 250.58 1368.88 379.88 1384.75 379.86 1416.04 287.57 1419.63 276.98"/>
      <path class="cls-1" d="M1491.39,304.49l-50.74-19.83-3.56,10.51,49.38,19.04c.77.31.93.92.93,1.7s-.15,1.23-.92,1.69l-65.64,25.56-4.75,14.03,75.34-29.89c4.93-2.01,6.77-5.56,6.76-11.42,0-5.86-1.87-9.56-6.8-11.4Z"/>
    </g>
    <path class="cls-1" d="M1099.16,367.8h-18.19v-83.23c0-13.56,7.71-22.66,23.89-22.66,14.49,0,20.96,7.4,25.28,19.27l30.36,66.43c1.23,2.47,3.24,4.32,6.63,4.32,3.85,0,6.16-2.31,6.16-5.86v-82.3h18.34v83.07c0,13.72-7.86,22.81-23.89,22.81-14.49,0-21.12-7.4-25.43-19.27l-30.36-66.43c-1.39-3.08-3.24-4.47-6.47-4.47-4.16,0-6.32,2.31-6.32,6.01v82.3Z"/>
    <path class="cls-1" d="M1226.34,367.8h-18.03v-82.6c0-13.87,8.17-23.27,24.96-23.27,14.79,0,23.27,7.4,26.2,20.5l14.64,63.65c.92,3.7,3.08,5.86,6.93,5.86s6.01-2.16,6.94-5.86l14.64-63.65c2.93-13.1,10.63-20.5,25.58-20.5,16.8,0,24.96,9.4,24.96,23.27v82.6h-18.03v-81.68c0-4.01-2.62-6.63-7.4-6.63-4.31,0-6.47,2.16-7.24,5.55l-14.95,63.65c-3.24,13.72-10.32,20.96-24.66,20.96s-22.04-7.55-25.12-20.96l-14.79-63.65c-.77-3.39-3.08-5.55-7.24-5.55-4.78,0-7.4,2.62-7.4,6.63v81.68Z"/>
  </g>
  <g>
    <g>
      <rect class="cls-1" x="131.29" y="284.11" width="154.06" height="19.68"/>
      <rect class="cls-1" x="131.29" y="210.3" width="154.06" height="19.49"/>
      <rect class="cls-1" x="131.29" y="136.31" width="154.06" height="19.68"/>
    </g>
    <polygon class="cls-1" points="385.5 214.52 308.47 136.31 308.47 303.79 327.05 303.79 327.05 183.47 385.5 242.22 443.96 183.47 443.96 303.79 462.54 303.79 462.54 136.31 385.5 214.52"/>
    <polygon class="cls-1" points="266.48 326.63 285.53 326.63 285.53 494.12 131.46 494.12 131.46 474.31 266.48 474.31 266.48 326.63 266.48 326.63"/>
    <path class="cls-1" d="M330.76,433.86c2.36-4.22,5.51-7.55,9.47-9.99,3.97-2.45,8.29-3.68,13-3.68h90.73v54.12h-90.73c-4.58,0-8.88-1.19-12.91-3.58-4.02-2.39-7.21-5.63-9.57-9.71-2.35-4.09-3.53-8.58-3.53-13.48s1.18-9.47,3.53-13.67h0ZM330.76,359.84c2.36-4.15,5.51-7.42,9.47-9.81,3.97-2.39,8.29-3.58,13-3.58h90.73v54.12h-90.73c-4.58,0-8.88-1.23-12.91-3.68-4.02-2.45-7.21-5.79-9.57-9.99-2.35-4.22-3.53-8.71-3.53-13.48s1.18-9.43,3.53-13.58h0ZM325.37,410.38l-3.53,3.58c-8.91,9.3-13.37,20.5-13.37,33.57,0,8.42,2.01,16.18,6.03,23.29,4.02,7.1,9.47,12.76,16.34,16.98,6.88,4.21,14.33,6.32,22.38,6.32h109.24v-4.05h.06v-160.84h-.06v-2.59h-109.24c-8.05,0-15.51,2.1-22.38,6.32-6.88,4.21-12.32,9.9-16.34,17.07-4.02,7.17-6.03,14.96-6.03,23.39,0,13.33,4.46,24.46,13.37,33.39l3.53,3.58h0Z"/>
    <g>
      <path class="cls-1" d="M157.24,440.34c-1.17-.05-3.15-.08-5.93-.08-3.74,0-6.55.02-8.43.08v-.52c.58-.02,1-.09,1.26-.2.26-.11.43-.31.53-.6.1-.29.14-.77.14-1.41v-12.84c0-.64-.05-1.12-.14-1.41-.1-.29-.27-.5-.53-.6-.26-.11-.68-.18-1.25-.2v-.52c1.88.05,4.69.08,8.43.08,2.54,0,4.35-.02,5.41-.08-.12,1.43-.18,2.7-.18,3.82,0,.75.02,1.34.08,1.75h-.6c-.16-1.25-.43-2.23-.8-2.96s-.82-1.25-1.38-1.56-1.25-.47-2.06-.47h-1.06c-.53,0-.92.04-1.16.12s-.4.25-.49.5c-.09.25-.13.66-.13,1.21v6.41h.84c.93,0,1.62-.34,2.1-1.01.47-.68.8-1.47.99-2.41h.6c-.05.85-.09,1.67-.09,2.44v1.23c.01.88.07,2.1.17,3.68h-.6c-.34-2.28-1.39-3.42-3.16-3.42h-.84v6.52c0,.56.05.96.13,1.21.09.25.25.42.49.5.24.09.62.12,1.16.12h1.27c.81,0,1.51-.17,2.1-.53.6-.35,1.1-.93,1.51-1.74.41-.81.73-1.89.93-3.25h.6c-.05.56-.08,1.28-.08,2.17,0,1.41.05,2.72.18,3.93h0s-.01.02-.01.02Z"/>
      <path class="cls-1" d="M180.28,422.73c-.26.11-.44.31-.53.6s-.14.77-.14,1.41v12.84c0,.64.05,1.12.14,1.41.1.29.27.5.53.6.26.11.68.18,1.26.2v.52c-.96-.05-2.32-.08-4.07-.08-1.84,0-3.21.02-4.09.08v-.52c.62-.02,1.08-.09,1.36-.2s.47-.31.58-.6.16-.77.16-1.41v-13.47l-6.23,16.25h-.42l-6.98-16.69v12.41c0,1.03.05,1.78.16,2.25.1.47.33.82.68,1.04.34.22.9.36,1.68.44v.52c-.66-.05-1.6-.08-2.8-.08-.95,0-1.7.02-2.25.08v-.52c.57-.08.98-.23,1.25-.43.27-.22.45-.54.55-.99s.14-1.11.14-1.99v-11.65c0-.64-.05-1.12-.14-1.41-.1-.29-.27-.5-.53-.6-.26-.11-.68-.18-1.26-.2v-.52c.55.05,1.3.08,2.25.08,1.6,0,2.96-.02,4.09-.08l5.22,12.59,4.78-12.51h1.83c1.75,0,3.11-.02,4.07-.08v.52c-.58.02-1,.09-1.26.2h0Z"/>
      <path class="cls-1" d="M193.85,438.59c.58-.77.87-1.89.87-3.39,0-1.36-.34-2.39-1.03-3.1-.69-.71-1.78-1.06-3.27-1.06h-1.09v6.55c0,.62.05,1.08.14,1.38.09.29.26.5.5.6.25.11.62.16,1.14.16,1.23,0,2.15-.38,2.73-1.15h.01ZM189.92,422.71c-.23.12-.38.34-.47.65-.09.31-.12.77-.12,1.39v5.85h1.11c1.12,0,1.92-.38,2.36-1.15.45-.77.67-1.79.67-3.07s-.2-2.27-.6-2.9c-.4-.64-1.05-.95-1.94-.95-.45,0-.8.06-1.02.19h0ZM196.25,431.56c.97.45,1.67,1,2.1,1.65s.65,1.36.65,2.1c0,1.07-.29,1.98-.85,2.73-.57.75-1.39,1.32-2.46,1.71s-2.34.57-3.82.57l-1.25-.02c-1.14-.03-2.27-.05-3.36-.05-1.78,0-3.1.02-3.98.08v-.52c.58-.02,1-.09,1.26-.2s.43-.31.53-.6c.1-.29.14-.77.14-1.41v-12.84c0-.64-.05-1.12-.14-1.41s-.27-.5-.53-.6c-.26-.11-.68-.18-1.25-.2v-.52c.88.05,2.19.08,3.93.08.32,0,1.29-.01,2.91-.04h1.16c1.39-.01,2.56.16,3.52.49.95.34,1.68.82,2.16,1.43.48.61.72,1.32.72,2.13,0,.64-.19,1.27-.56,1.89s-.95,1.16-1.72,1.64c-.78.47-1.74.82-2.89,1.03v.05c1.54.12,2.79.4,3.76.85h0Z"/>
      <path class="cls-1" d="M207.37,422.73c-.28.11-.47.31-.58.6-.1.29-.16.77-.16,1.41v13.14c0,.56.04.96.12,1.21.09.25.23.42.45.5.22.09.57.12,1.05.12h1.26c.78,0,1.5-.24,2.16-.72.65-.48,1.2-1.16,1.65-2.03.44-.87.75-1.89.92-3.03h.6c-.05.59-.08,1.35-.08,2.27,0,1.47.05,2.84.18,4.09-1.17-.05-3.15-.08-5.93-.08-3.74,0-6.55.02-8.43.08v-.52c.58-.02,1-.09,1.26-.2s.43-.31.53-.6c.1-.29.14-.77.14-1.41v-12.84c0-.64-.05-1.12-.14-1.41-.1-.29-.27-.5-.53-.6-.26-.11-.68-.18-1.25-.2v-.52c.88.05,2.23.08,4.08.08s3.11-.02,4.07-.08v.52c-.62.02-1.08.09-1.36.2h0Z"/>
      <path class="cls-1" d="M230.73,440.34c-1.17-.05-3.15-.08-5.93-.08-3.74,0-6.55.02-8.43.08v-.52c.58-.02,1-.09,1.26-.2s.43-.31.53-.6c.1-.29.14-.77.14-1.41v-12.84c0-.64-.05-1.12-.14-1.41-.1-.29-.27-.5-.53-.6-.26-.11-.68-.18-1.25-.2v-.52c1.88.05,4.69.08,8.43.08,2.54,0,4.35-.02,5.41-.08-.12,1.43-.18,2.7-.18,3.82,0,.75.02,1.34.08,1.75h-.6c-.16-1.25-.43-2.23-.8-2.96s-.82-1.25-1.38-1.56-1.25-.47-2.06-.47h-1.06c-.53,0-.92.04-1.16.12-.24.09-.4.25-.49.5-.09.25-.13.66-.13,1.21v6.41h.84c.93,0,1.62-.34,2.1-1.01.47-.68.8-1.47.99-2.41h.6c-.05.85-.09,1.67-.09,2.44v1.23c.01.88.07,2.1.17,3.68h-.6c-.34-2.28-1.39-3.42-3.16-3.42h-.84v6.52c0,.56.05.96.13,1.21.09.25.25.42.49.5.24.09.62.12,1.16.12h1.27c.81,0,1.51-.17,2.1-.53.6-.35,1.1-.93,1.51-1.74.41-.81.73-1.89.93-3.25h.6c-.05.56-.08,1.28-.08,2.17,0,1.41.05,2.72.18,3.93h0s-.01.02-.01.02Z"/>
      <path class="cls-1" d="M253.79,422.73c-.26.11-.44.31-.53.6s-.14.77-.14,1.41v12.84c0,.64.05,1.12.14,1.41.1.29.27.5.53.6.26.11.68.18,1.26.2v.52c-.96-.05-2.32-.08-4.07-.08-1.84,0-3.21.02-4.09.08v-.52c.62-.02,1.08-.09,1.36-.2.28-.11.47-.31.58-.6s.16-.77.16-1.41v-13.47l-6.23,16.25h-.42l-6.98-16.69v12.41c0,1.03.05,1.78.16,2.25.1.47.33.82.68,1.04.34.22.9.36,1.68.44v.52c-.66-.05-1.6-.08-2.8-.08-.95,0-1.7.02-2.25.08v-.52c.57-.08.98-.23,1.25-.43.27-.22.45-.54.55-.99s.14-1.11.14-1.99v-11.65c0-.64-.05-1.12-.14-1.41-.1-.29-.27-.5-.53-.6-.26-.11-.68-.18-1.26-.2v-.52c.55.05,1.3.08,2.25.08,1.6,0,2.96-.02,4.09-.08l5.22,12.59,4.78-12.51h1.83c1.75,0,3.11-.02,4.07-.08v.52c-.58.02-1,.09-1.26.2h0Z"/>
      <path class="cls-1" d="M152.75,446.42c.6.25,1.19.58,1.76,1.02.16.12.29.19.42.19.29,0,.47-.42.54-1.27h.49c-.05.93-.09,2.57-.09,4.92h-.49c-.1-.64-.2-1.14-.29-1.49-.09-.36-.19-.66-.31-.9-.12-.25-.28-.5-.48-.77-.43-.56-.98-.98-1.65-1.25-.66-.28-1.37-.42-2.14-.42-.93,0-1.74.31-2.43.92-.7.61-1.23,1.49-1.62,2.62-.38,1.13-.57,2.47-.57,4s.21,2.89.63,4c.42,1.12.99,1.96,1.72,2.54.73.58,1.56.87,2.49.87.71,0,1.41-.14,2.08-.4.67-.27,1.2-.68,1.58-1.23.29-.39.5-.82.63-1.27.12-.46.25-1.16.36-2.12h.49c0,2.46.03,4.17.09,5.14h-.49c-.03-.45-.09-.77-.17-.97s-.19-.29-.35-.29c-.11,0-.26.05-.44.18-.42.29-.82.54-1.17.74-.36.19-.77.35-1.23.47-.46.12-.98.19-1.56.19-1.36,0-2.54-.31-3.57-.92-1.02-.61-1.82-1.51-2.37-2.67-.56-1.17-.84-2.55-.84-4.17s.29-2.97.87-4.17c.58-1.21,1.38-2.15,2.41-2.82,1.03-.67,2.2-1,3.52-1,.85,0,1.58.12,2.18.36h-.01,0Z"/>
      <path class="cls-1" d="M162.56,446.93c-.23.1-.38.28-.46.53-.08.26-.12.64-.12,1.15v5.26h1.44c.96,0,1.71-.16,2.26-.46s.92-.71,1.12-1.23c.21-.51.32-1.13.32-1.86,0-1.17-.28-2.06-.84-2.65-.56-.6-1.47-.9-2.72-.9-.45,0-.78.05-1,.15h0ZM170.49,461.49c-.33.22-.76.33-1.3.33-.58,0-1.06-.17-1.44-.51-.38-.34-.66-.95-.86-1.81l-.47-2.13c-.16-.75-.33-1.32-.47-1.71-.15-.4-.38-.72-.68-.96-.3-.24-.72-.36-1.26-.36h-2.04v4.92c0,.53.05.93.13,1.17.09.25.25.41.48.5s.6.15,1.12.16v.43c-.65-.04-1.56-.06-2.72-.06-1.23,0-2.14.02-2.73.06v-.43c.51-.02.89-.08,1.12-.16s.4-.26.48-.5c.09-.25.13-.64.13-1.17v-10.61c0-.53-.05-.93-.13-1.17-.09-.25-.25-.41-.48-.5s-.6-.15-1.12-.16v-.43c.6.04,1.47.06,2.61.06.25,0,1.02-.01,2.32-.03h.91c1.12-.01,2.06.14,2.83.47.77.33,1.36.77,1.75,1.33s.58,1.19.58,1.91c0,.56-.13,1.12-.4,1.69-.26.57-.71,1.08-1.33,1.53-.62.45-1.43.75-2.43.9l.26.04c.64.1,1.15.26,1.54.47s.69.5.92.88c.23.36.41.86.55,1.47l.53,2.19c.09.44.19.78.27,1.03s.21.43.33.55c.13.12.29.18.49.18.23,0,.43-.06.58-.19.16-.12.35-.33.58-.63l.33.24c-.33.48-.66.83-.99,1.05v-.02h0Z"/>
      <path class="cls-1" d="M183.23,461.51c-.97-.04-2.6-.06-4.9-.06-2.73,0-4.81.02-6.21.06v-.43c.51-.02.89-.08,1.12-.16s.4-.26.48-.5c.09-.25.13-.64.13-1.17v-10.61c0-.53-.05-.93-.13-1.17-.09-.25-.25-.41-.48-.5s-.6-.15-1.12-.16v-.43c1.41.04,3.47.06,6.21.06,2.1,0,3.58-.02,4.48-.06-.1.93-.15,1.78-.15,2.53,0,.56.02,1,.06,1.33h-.49c-.1-.93-.23-1.61-.4-2.07-.16-.46-.42-.78-.8-.99s-.93-.31-1.69-.31h-1.78c-.51,0-.89.04-1.12.12-.23.09-.4.25-.48.49-.09.24-.13.63-.13,1.17v5.04h1.42c.5,0,.88-.12,1.16-.36.27-.23.45-.51.54-.84s.17-.73.23-1.21c0-.12.02-.26.05-.42h.49c-.05.71-.08,1.37-.08,2.02v1.02c.01.73.05,1.74.14,3.04h-.49l-.03-.3c-.06-.57-.14-1.01-.24-1.35-.1-.33-.29-.61-.56-.84-.27-.23-.68-.34-1.22-.34h-1.42v5.14c0,.53.05.93.13,1.17.09.24.25.4.48.49s.6.12,1.12.12h1.57c.89,0,1.57-.12,2.03-.36.47-.23.8-.62,1-1.14s.36-1.29.47-2.3h.49c-.04.38-.06.9-.06,1.54,0,.81.05,1.72.15,2.73h0s0,.01,0,.01Z"/>
      <path class="cls-1" d="M190.25,448.96l-2.45,6.39h4.85l-2.39-6.39ZM197.89,461.08v.43c-.58-.04-1.35-.06-2.3-.06-1.22,0-2.13.02-2.73.06v-.43c.54-.02.93-.09,1.17-.2s.35-.31.35-.6c0-.25-.09-.58-.25-1l-1.32-3.52h-5.16l-.88,2.27c-.29.73-.43,1.31-.43,1.75s.15.78.45.97.77.29,1.41.32v.43c-.82-.04-1.64-.06-2.47-.06-.64,0-1.17.02-1.6.06v-.43c.71-.16,1.27-.78,1.68-1.86l5.04-12.97h.34l5.21,13.46c.35.88.84,1.34,1.48,1.37h.02Z"/>
      <path class="cls-1" d="M209.19,449.09c0,.71.02,1.3.06,1.75h-.49c-.11-1.11-.25-1.93-.42-2.46s-.47-.92-.9-1.17c-.43-.25-1.09-.37-1.97-.37h-1.16v12.17c0,.6.05,1.02.16,1.3.11.27.32.47.6.57.29.1.75.16,1.39.19v.43c-.75-.04-1.8-.06-3.15-.06-1.43,0-2.48.02-3.17.06v-.43c.64-.02,1.1-.09,1.39-.19s.49-.29.6-.57c.11-.27.16-.71.16-1.3v-12.17h-1.16c-.88,0-1.54.12-1.97.37-.43.25-.73.64-.9,1.17-.17.53-.31,1.36-.42,2.46h-.49c.04-.45.06-1.04.06-1.75,0-.84-.05-1.75-.16-2.73,1.19.04,3.2.06,6.04.06s4.83-.02,6-.06c-.1,1.02-.15,1.93-.15,2.73h.02Z"/>
      <path class="cls-1" d="M215.19,446.95c-.23.09-.4.26-.48.5-.09.25-.13.64-.13,1.17v10.61c0,.53.05.93.13,1.17.09.25.25.41.48.5s.6.15,1.12.16v.43c-.65-.04-1.56-.06-2.72-.06-1.23,0-2.14.02-2.73.06v-.43c.51-.02.89-.08,1.12-.16s.4-.26.48-.5c.09-.25.13-.64.13-1.17v-10.61c0-.53-.05-.93-.13-1.17-.09-.25-.25-.41-.48-.5s-.6-.15-1.12-.16v-.43c.59.04,1.51.06,2.73.06,1.16,0,2.06-.02,2.72-.06v.43c-.51.02-.89.08-1.12.16Z"/>
      <path class="cls-1" d="M230.86,446.35v.43c-.71.16-1.28.78-1.69,1.86l-5.02,12.97h-.34l-5.22-13.46c-.35-.88-.84-1.34-1.47-1.37v-.43c.58.04,1.34.06,2.29.06,1.23,0,2.14-.02,2.73-.06v.43c-.54.02-.93.09-1.17.2s-.35.31-.35.6c0,.23.09.57.25,1l3.88,10.28,3.49-9.04c.29-.74.43-1.32.43-1.75,0-.45-.16-.78-.46-.98-.31-.2-.78-.3-1.41-.32v-.43c.82.04,1.64.06,2.47.06.64,0,1.18-.02,1.61-.06h-.01Z"/>
      <path class="cls-1" d="M242.7,461.51c-.97-.04-2.6-.06-4.9-.06-2.73,0-4.81.02-6.21.06v-.43c.51-.02.89-.08,1.12-.16s.4-.26.48-.5.13-.64.13-1.17v-10.61c0-.53-.05-.93-.13-1.17-.09-.25-.25-.41-.48-.5s-.6-.15-1.12-.16v-.43c1.41.04,3.47.06,6.21.06,2.1,0,3.58-.02,4.48-.06-.1.93-.15,1.78-.15,2.53,0,.56.02,1,.06,1.33h-.49c-.1-.93-.23-1.61-.4-2.07-.16-.46-.42-.78-.8-.99-.37-.21-.93-.31-1.69-.31h-1.78c-.51,0-.89.04-1.12.12-.23.09-.4.25-.48.49-.09.24-.13.63-.13,1.17v5.04h1.42c.5,0,.88-.12,1.16-.36.27-.23.45-.51.54-.84.09-.32.17-.73.23-1.21,0-.12.02-.26.05-.42h.49c-.05.71-.08,1.37-.08,2.02v1.02c.01.73.05,1.74.14,3.04h-.49l-.03-.3c-.06-.57-.14-1.01-.24-1.35-.1-.33-.29-.61-.56-.84-.27-.23-.68-.34-1.22-.34h-1.42v5.14c0,.53.05.93.13,1.17.09.24.25.4.48.49s.6.12,1.12.12h1.57c.89,0,1.57-.12,2.03-.36.47-.23.8-.62,1-1.14s.36-1.29.47-2.3h.49c-.04.38-.06.9-.06,1.54,0,.81.05,1.72.15,2.73h0s0,.01,0,.01Z"/>
      <path class="cls-1" d="M250.33,446.22c.32.08.58.16.79.27.21.11.44.25.69.41.32.2.57.3.73.3.13,0,.23-.08.3-.23s.12-.39.16-.71h.49c-.07.84-.1,2.3-.1,4.37h-.49c-.05-.73-.21-1.41-.47-2.02-.26-.62-.64-1.12-1.15-1.51-.5-.39-1.13-.58-1.89-.58-.5,0-.95.1-1.35.32s-.71.5-.93.88c-.23.38-.33.81-.33,1.3,0,.54.12,1.01.37,1.41.25.4.57.75.95,1.04.39.29.93.65,1.64,1.09l.64.39c.9.57,1.61,1.06,2.13,1.47.53.42.94.89,1.25,1.44.32.55.47,1.19.47,1.91,0,.88-.2,1.62-.6,2.23-.4.61-.95,1.07-1.64,1.37-.69.31-1.45.46-2.3.46-.68,0-1.24-.07-1.68-.21s-.85-.34-1.24-.58c-.32-.2-.57-.3-.73-.3-.13,0-.23.08-.3.23s-.12.39-.16.71h-.49c.05-.78.09-2.49.09-5.13h.49c.1,1.45.45,2.62,1.06,3.52s1.56,1.34,2.83,1.34c.49,0,.95-.1,1.36-.3.42-.2.76-.51,1.02-.95s.4-.96.4-1.6c0-.55-.13-1.04-.4-1.47s-.63-.84-1.09-1.19c-.46-.36-1.08-.77-1.84-1.23-.85-.51-1.54-.97-2.05-1.37s-.94-.88-1.27-1.45c-.33-.56-.5-1.22-.5-1.98,0-.81.19-1.49.55-2.05.36-.56.85-.97,1.47-1.25.6-.27,1.28-.41,2.02-.41.44,0,.82.03,1.13.11h-.01s-.02-.03-.02-.03Z"/>
    </g>
  </g>
  <path class="cls-1" d="M547.15,272.07l31.1,38.91,1.33,2,1.33-2,31.1-38.91h4.32l-34.59,43.4,34.26,42.9h-4.32l-30.76-38.58-1.33-2-1.33,2-30.76,38.58h-4.32l34.26-42.9-34.59-43.4h4.32Z"/>
</svg>