<svg width="1317" height="321" viewBox="0 0 1317 321" fill="none" xmlns="http://www.w3.org/2000/svg">
<path d="M539.006 162.61C538.265 162.332 538.12 161.785 538.12 161.096C538.12 160.406 538.265 159.994 539.006 159.573L599.032 137.93L604.492 125.075L534.259 150.865C529.512 152.666 527.731 155.837 527.731 161.087C527.731 166.336 529.512 169.651 534.259 171.299L578.07 187.307L581.98 178.089L539.006 162.601V162.61Z" fill="white"/>
<path d="M651.904 112.632C641.361 112.632 634.534 115.947 630.827 124.645L604.867 185.793L600.92 195.101L595.662 207.49H614.958L646.714 132.519C647.754 130.307 649.381 129.339 651.76 129.339C654.138 129.339 655.765 130.307 656.661 132.519L687.088 207.49H706.529L672.693 124.645C669.13 115.947 662.303 112.632 651.914 112.632H651.904Z" fill="white"/>
<path d="M712.836 114.289L740.884 154.189L769.232 114.289H790.011L749.647 167.313V207.49H731.987V167.313L691.614 114.289H712.836Z" fill="white"/>
<path d="M850.663 114.289C879.751 114.289 895.928 129.751 895.928 161.096C895.928 192.44 879.906 207.49 850.663 207.49H837.009C807.776 207.49 791.744 192.306 791.744 161.096C791.744 129.885 807.92 114.289 837.009 114.289H850.663ZM837.019 130.575C817.722 130.575 809.268 139.686 809.268 161.087C809.268 182.488 817.578 191.186 837.019 191.186H850.672C869.969 191.186 878.278 182.353 878.278 160.943C878.278 139.533 869.969 130.566 850.672 130.566H837.019V130.575Z" fill="white"/>
<path d="M1240.94 126.123L1249.56 102.447L1234.42 102.474L1192.07 218.303L1207.35 218.285L1237.48 135.61L1240.94 126.123Z" fill="white"/>
<path d="M1310.04 150.767L1261.18 133.003L1257.75 142.418L1305.3 159.474C1306.04 159.752 1306.19 160.298 1306.19 160.997C1306.19 161.696 1306.05 162.099 1305.31 162.511L1242.1 185.408L1237.53 197.976L1310.07 171.201C1314.82 169.4 1316.59 166.22 1316.58 160.97C1316.58 155.721 1314.78 152.406 1310.04 150.758V150.767Z" fill="white"/>
<path d="M932.363 207.481H914.849V132.922C914.849 120.775 922.272 112.623 937.852 112.623C951.804 112.623 958.034 119.252 962.194 129.885L991.427 189.395C992.611 191.607 994.546 193.264 997.811 193.264C1001.52 193.264 1003.74 191.195 1003.74 188.015V114.289H1021.4V188.705C1021.4 200.995 1013.83 209.138 998.398 209.138C984.446 209.138 978.062 202.509 973.912 191.876L944.679 132.367C943.34 129.608 941.559 128.363 938.449 128.363C934.443 128.363 932.363 130.432 932.363 133.746V207.472V207.481Z" fill="white"/>
<path d="M1054.82 207.481H1037.46V133.487C1037.46 121.062 1045.33 112.641 1061.5 112.641C1075.74 112.641 1083.9 119.27 1086.72 131.005L1100.82 188.024C1101.71 191.338 1103.79 193.273 1107.49 193.273C1111.2 193.273 1113.28 191.338 1114.18 188.024L1128.27 131.005C1131.09 119.27 1138.51 112.641 1152.9 112.641C1169.08 112.641 1176.94 121.062 1176.94 133.487V207.481H1159.58V134.311C1159.58 130.719 1157.05 128.372 1152.45 128.372C1148.3 128.372 1146.22 130.307 1145.48 133.343L1131.08 190.362C1127.96 202.653 1121.15 209.138 1107.34 209.138C1093.53 209.138 1086.12 202.375 1083.15 190.362L1068.91 133.343C1068.17 130.307 1065.94 128.372 1061.94 128.372C1057.34 128.372 1054.81 130.719 1054.81 134.311V207.481H1054.82Z" fill="white"/>
<path d="M148.759 132.51H0.416992V150.14H148.759V132.51Z" fill="white"/>
<path d="M148.759 66.3901H0.416992V83.8495H148.759V66.3901Z" fill="white"/>
<path d="M148.759 0.108643H0.416992V17.7383H148.759V0.108643Z" fill="white"/>
<path d="M245.192 70.1704L171.021 0.108643V150.14H188.911V42.3553L245.192 94.9845L301.482 42.3553V150.14H319.372V0.108643L245.192 70.1704Z" fill="white"/>
<path d="M130.589 170.6H148.932V320.64H0.580688V302.894H130.589V170.6Z" fill="white"/>
<path d="M192.483 266.659C194.756 262.878 197.789 259.895 201.602 257.709C205.425 255.515 209.584 254.413 214.119 254.413H301.482V302.894H214.119C209.709 302.894 205.569 301.828 201.689 299.687C197.818 297.546 194.746 294.644 192.474 290.989C190.211 287.325 189.075 283.303 189.075 278.913C189.075 274.524 190.211 270.43 192.474 266.668L192.483 266.659ZM192.483 200.35C194.756 196.633 197.789 193.703 201.602 191.562C205.425 189.421 209.584 188.355 214.119 188.355H301.482V236.837H214.119C209.709 236.837 205.569 235.735 201.689 233.54C197.818 231.346 194.746 228.354 192.474 224.591C190.211 220.811 189.075 216.789 189.075 212.516C189.075 208.243 190.211 204.068 192.474 200.35H192.483ZM187.293 245.625L183.895 248.832C175.315 257.163 171.021 267.196 171.021 278.904C171.021 286.447 172.956 293.399 176.827 299.768C180.698 306.128 185.945 311.199 192.56 314.979C199.185 318.75 206.359 320.641 214.11 320.641H319.295V317.012H319.353V172.929H319.295V170.609H214.11C206.359 170.609 199.175 172.49 192.56 176.271C185.936 180.042 180.698 185.139 176.827 191.562C172.956 197.985 171.021 204.964 171.021 212.516C171.021 224.457 175.315 234.427 183.895 242.427L187.293 245.634V245.625Z" fill="white"/>
<path d="M25.4039 272.464C24.2773 272.419 22.3708 272.392 19.6939 272.392C16.0928 272.392 13.3871 272.41 11.5768 272.464V271.998C12.1353 271.98 12.5397 271.917 12.7901 271.819C13.0404 271.72 13.2041 271.541 13.3004 271.281C13.3967 271.021 13.4352 270.591 13.4352 270.018V258.516C13.4352 257.942 13.3871 257.512 13.3004 257.253C13.2041 256.993 13.0404 256.805 12.7901 256.715C12.5397 256.617 12.1353 256.554 11.5865 256.536V256.07C13.3967 256.115 16.1024 256.142 19.7036 256.142C22.1493 256.142 23.8921 256.124 24.9128 256.07C24.7972 257.351 24.7395 258.489 24.7395 259.492C24.7395 260.164 24.7587 260.693 24.8165 261.06H24.2388C24.0847 259.94 23.8247 259.062 23.4685 258.408C23.1122 257.754 22.6789 257.289 22.1397 257.011C21.6005 256.733 20.9361 256.59 20.1561 256.59H19.1355C18.6251 256.59 18.2496 256.626 18.0185 256.697C17.7874 256.769 17.6334 256.921 17.5467 257.145C17.4601 257.369 17.4215 257.736 17.4215 258.229V263.971H18.2304C19.1258 263.971 19.7902 263.667 20.2524 263.067C20.705 262.457 21.0227 261.75 21.2057 260.908H21.7834C21.7353 261.669 21.6967 262.404 21.6967 263.093V264.195C21.7064 264.984 21.7641 266.077 21.8604 267.492H21.2827C20.9553 265.449 19.9443 264.428 18.24 264.428H17.4312V270.269C17.4312 270.771 17.4793 271.129 17.5563 271.353C17.643 271.577 17.7971 271.729 18.0282 271.801C18.2593 271.881 18.6252 271.908 19.1451 271.908H20.368C21.1479 271.908 21.8219 271.756 22.39 271.433C22.9678 271.12 23.4492 270.6 23.844 269.875C24.2388 269.149 24.5469 268.182 24.7395 266.963H25.3172C25.269 267.465 25.2402 268.11 25.2402 268.907C25.2402 270.17 25.2883 271.344 25.4135 272.428L25.4039 272.446V272.464Z" fill="white"/>
<path d="M47.5887 256.688C47.3384 256.787 47.165 256.966 47.0784 257.226C46.9917 257.485 46.9436 257.915 46.9436 258.489V269.991C46.9436 270.564 46.9917 270.994 47.0784 271.254C47.1747 271.514 47.3384 271.702 47.5887 271.792C47.8391 271.89 48.2435 271.953 48.8019 271.971V272.437C47.8776 272.392 46.5681 272.365 44.883 272.365C43.1113 272.365 41.7922 272.383 40.9448 272.437V271.971C41.5418 271.953 41.9847 271.89 42.2543 271.792C42.524 271.693 42.7069 271.514 42.8128 271.254C42.9187 270.994 42.9669 270.564 42.9669 269.991V257.924L36.9681 272.481H36.5637L29.8428 257.53V268.647C29.8428 269.57 29.8909 270.242 29.9968 270.663C30.0931 271.084 30.3146 271.397 30.6516 271.595C30.979 271.792 31.5182 271.917 32.2692 271.989V272.455C31.6337 272.41 30.7286 272.383 29.5732 272.383C28.6584 272.383 27.9363 272.401 27.4067 272.455V271.989C27.9555 271.917 28.3503 271.783 28.6103 271.604C28.8703 271.406 29.0436 271.12 29.1399 270.717C29.2361 270.314 29.2747 269.722 29.2747 268.934V258.498C29.2747 257.924 29.2265 257.494 29.1399 257.235C29.0436 256.975 28.8799 256.787 28.6295 256.697C28.3792 256.599 27.9748 256.536 27.4163 256.518V256.052C27.9459 256.097 28.668 256.124 29.5828 256.124C31.1234 256.124 32.4329 256.106 33.521 256.052L38.5472 267.33L43.1498 256.124H44.9119C46.5969 256.124 47.9065 256.106 48.8308 256.052V256.518C48.2724 256.536 47.8679 256.599 47.6176 256.697L47.5887 256.688Z" fill="white"/>
<path d="M60.655 270.896C61.2135 270.206 61.4928 269.203 61.4928 267.859C61.4928 266.641 61.1654 265.718 60.501 265.082C59.8366 264.446 58.787 264.132 57.3523 264.132H56.3028V270C56.3028 270.555 56.351 270.968 56.4376 271.236C56.5243 271.496 56.688 271.684 56.9191 271.774C57.1598 271.872 57.516 271.917 58.0167 271.917C59.2011 271.917 60.0869 271.577 60.6454 270.887H60.655V270.896ZM56.8709 256.67C56.6494 256.778 56.505 256.975 56.4183 257.253C56.3317 257.53 56.3028 257.942 56.3028 258.498V263.738H57.3716C58.45 263.738 59.2203 263.398 59.644 262.708C60.0773 262.018 60.2891 261.105 60.2891 259.958C60.2891 258.811 60.0966 257.924 59.7114 257.36C59.3263 256.787 58.7004 256.509 57.8434 256.509C57.4101 256.509 57.0731 256.563 56.8613 256.679L56.8709 256.67ZM62.966 264.598C63.9 265.001 64.574 265.494 64.988 266.076C65.4021 266.659 65.6139 267.295 65.6139 267.958C65.6139 268.916 65.3346 269.731 64.7954 270.403C64.2466 271.075 63.457 271.586 62.4267 271.935C61.3965 272.284 60.1736 272.446 58.7485 272.446L57.5449 272.428C56.4472 272.401 55.3592 272.383 54.3096 272.383C52.5957 272.383 51.3247 272.401 50.4774 272.455V271.989C51.0358 271.971 51.4402 271.908 51.6906 271.81C51.9409 271.711 52.1046 271.532 52.2009 271.272C52.2972 271.012 52.3357 270.582 52.3357 270.009V258.507C52.3357 257.933 52.2876 257.503 52.2009 257.244C52.1143 256.984 51.9409 256.796 51.6906 256.706C51.4402 256.608 51.0358 256.545 50.487 256.527V256.061C51.3343 256.106 52.5957 256.133 54.2711 256.133C54.5792 256.133 55.5132 256.124 57.0731 256.097H58.1901C59.5285 256.088 60.655 256.24 61.5794 256.536C62.4941 256.84 63.1971 257.27 63.6592 257.817C64.1214 258.363 64.3525 258.999 64.3525 259.725C64.3525 260.298 64.1696 260.863 63.8133 261.418C63.457 261.974 62.8986 262.457 62.1571 262.887C61.4061 263.308 60.4817 263.622 59.3744 263.81V263.855C60.8572 263.962 62.0608 264.213 62.9948 264.616L62.966 264.598Z" fill="white"/>
<path d="M73.6732 256.688C73.4036 256.787 73.2207 256.966 73.1148 257.226C73.0185 257.485 72.9607 257.915 72.9607 258.489V270.26C72.9607 270.761 72.9992 271.12 73.0762 271.344C73.1629 271.568 73.2977 271.72 73.5095 271.792C73.7214 271.872 74.0584 271.899 74.5206 271.899H75.7338C76.4848 271.899 77.1781 271.684 77.8136 271.254C78.4395 270.824 78.9691 270.215 79.4024 269.436C79.8261 268.656 80.1246 267.743 80.2883 266.721H80.866C80.8178 267.25 80.7889 267.931 80.7889 268.755C80.7889 270.072 80.8371 271.299 80.9623 272.419C79.8357 272.374 77.9292 272.347 75.2524 272.347C71.6512 272.347 68.9455 272.365 67.1353 272.419V271.953C67.6937 271.935 68.0981 271.872 68.3485 271.774C68.5988 271.675 68.7625 271.496 68.8588 271.236C68.9551 270.976 68.9936 270.546 68.9936 269.973V258.471C68.9936 257.898 68.9455 257.468 68.8588 257.208C68.7625 256.948 68.5988 256.76 68.3485 256.67C68.0981 256.572 67.6937 256.509 67.1449 256.491V256.025C67.9922 256.07 69.2921 256.097 71.0734 256.097C72.8548 256.097 74.068 256.079 74.9924 256.025V256.491C74.3954 256.509 73.9525 256.572 73.6829 256.67L73.6732 256.688Z" fill="white"/>
<path d="M96.1662 272.464C95.0396 272.419 93.1331 272.392 90.4563 272.392C86.8551 272.392 84.1494 272.41 82.3392 272.464V271.998C82.8976 271.98 83.3021 271.917 83.5524 271.819C83.8028 271.72 83.9665 271.541 84.0627 271.281C84.159 271.021 84.1975 270.591 84.1975 270.018V258.516C84.1975 257.942 84.1494 257.512 84.0627 257.253C83.9665 256.993 83.8028 256.805 83.5524 256.715C83.3021 256.617 82.8977 256.554 82.3488 256.536V256.07C84.159 256.115 86.8647 256.142 90.4659 256.142C92.9116 256.142 94.6545 256.124 95.6751 256.07C95.5596 257.351 95.5018 258.489 95.5018 259.492C95.5018 260.164 95.5211 260.692 95.5788 261.06H95.0011C94.847 259.94 94.5871 259.062 94.2308 258.408C93.8745 257.754 93.4412 257.288 92.902 257.011C92.3628 256.733 91.6984 256.59 90.9185 256.59H89.8978C89.3875 256.59 89.012 256.625 88.7809 256.697C88.5498 256.778 88.3957 256.921 88.3091 257.145C88.2224 257.369 88.1839 257.736 88.1839 258.229V263.971H88.9927C89.8882 263.971 90.5526 263.667 91.0148 263.066C91.4673 262.457 91.7851 261.75 91.968 260.907H92.5457C92.4976 261.669 92.4591 262.404 92.4591 263.093V264.195C92.4687 264.983 92.5265 266.076 92.6228 267.492H92.045C91.7177 265.449 90.7066 264.428 89.0023 264.428H88.1935V270.269C88.1935 270.77 88.2417 271.129 88.3187 271.353C88.4053 271.577 88.5594 271.729 88.7905 271.801C89.0216 271.881 89.3875 271.908 89.9074 271.908H91.1303C91.9102 271.908 92.5843 271.756 93.1524 271.433C93.7301 271.12 94.2115 270.6 94.6063 269.875C95.0011 269.149 95.3092 268.182 95.5018 266.963H96.0795C96.0314 267.465 96.0025 268.11 96.0025 268.907C96.0025 270.17 96.0506 271.344 96.1758 272.428L96.1662 272.446V272.464Z" fill="white"/>
<path d="M118.37 256.688C118.12 256.787 117.947 256.966 117.86 257.226C117.773 257.485 117.725 257.915 117.725 258.489V269.991C117.725 270.564 117.773 270.994 117.86 271.254C117.956 271.514 118.12 271.702 118.37 271.792C118.621 271.89 119.025 271.953 119.584 271.971V272.437C118.659 272.392 117.35 272.365 115.665 272.365C113.893 272.365 112.574 272.383 111.726 272.437V271.971C112.323 271.953 112.766 271.89 113.036 271.792C113.306 271.693 113.488 271.514 113.594 271.254C113.7 270.994 113.748 270.564 113.748 269.991V257.924L107.75 272.481H107.345L100.624 257.53V268.647C100.624 269.57 100.672 270.242 100.778 270.663C100.875 271.084 101.096 271.397 101.433 271.595C101.761 271.792 102.3 271.917 103.051 271.989V272.455C102.415 272.41 101.51 272.383 100.355 272.383C99.44 272.383 98.7178 272.401 98.1882 272.455V271.989C98.7371 271.917 99.1319 271.783 99.3918 271.604C99.6518 271.406 99.8251 271.12 99.9214 270.717C100.018 270.314 100.056 269.722 100.056 268.934V258.498C100.056 257.924 100.008 257.494 99.9214 257.235C99.8251 256.975 99.6614 256.787 99.4111 256.697C99.1607 256.599 98.7563 256.536 98.1979 256.518V256.052C98.7274 256.097 99.4496 256.124 100.364 256.124C101.905 256.124 103.214 256.106 104.303 256.052L109.329 267.33L113.931 256.124H115.693C117.379 256.124 118.688 256.106 119.612 256.052V256.518C119.054 256.536 118.65 256.599 118.399 256.697L118.37 256.688Z" fill="white"/>
<path d="M21.0805 277.91C21.6583 278.134 22.2264 278.43 22.7752 278.824C22.9293 278.931 23.0544 278.994 23.1796 278.994C23.4588 278.994 23.6322 278.618 23.6996 277.856H24.1714C24.1232 278.689 24.0847 280.159 24.0847 282.264H23.6129C23.5166 281.69 23.4203 281.243 23.3337 280.929C23.247 280.606 23.1507 280.338 23.0352 280.123C22.9196 279.899 22.7656 279.675 22.573 279.433C22.159 278.931 21.6294 278.555 20.9842 278.313C20.3487 278.062 19.6651 277.937 18.9237 277.937C18.0282 277.937 17.2483 278.215 16.5839 278.761C15.9098 279.308 15.3995 280.096 15.024 281.108C14.6581 282.12 14.4751 283.321 14.4751 284.691C14.4751 286.062 14.6774 287.28 15.0818 288.275C15.4862 289.278 16.035 290.03 16.7379 290.55C17.4408 291.07 18.24 291.329 19.1355 291.329C19.8191 291.329 20.4932 291.204 21.1383 290.971C21.7834 290.729 22.2938 290.362 22.6597 289.869C22.9389 289.52 23.1411 289.135 23.2663 288.732C23.3818 288.319 23.507 287.692 23.6129 286.832H24.0847C24.0847 289.036 24.1136 290.568 24.1714 291.437H23.6996C23.6707 291.034 23.6129 290.747 23.5359 290.568C23.4589 290.389 23.3529 290.308 23.1989 290.308C23.093 290.308 22.9485 290.353 22.7752 290.469C22.3708 290.729 21.9856 290.953 21.6486 291.132C21.302 291.303 20.9072 291.446 20.4643 291.553C20.0214 291.661 19.5207 291.724 18.9622 291.724C17.6527 291.724 16.5165 291.446 15.5247 290.899C14.5425 290.353 13.7722 289.547 13.2427 288.508C12.7034 287.459 12.4338 286.223 12.4338 284.772C12.4338 283.321 12.7131 282.111 13.2715 281.036C13.83 279.953 14.6003 279.11 15.5921 278.51C16.5839 277.91 17.7104 277.614 18.9815 277.614C19.7999 277.614 20.5028 277.722 21.0805 277.937H21.0709L21.0805 277.91Z" fill="white"/>
<path d="M30.5264 278.367C30.3049 278.457 30.1605 278.618 30.0835 278.842C30.0064 279.075 29.9679 279.415 29.9679 279.872V284.584H31.3545C32.2788 284.584 33.001 284.441 33.5306 284.172C34.0601 283.903 34.4164 283.536 34.609 283.07C34.8112 282.613 34.9171 282.058 34.9171 281.404C34.9171 280.356 34.6475 279.558 34.1083 279.03C33.5691 278.492 32.6929 278.224 31.4893 278.224C31.056 278.224 30.7382 278.268 30.5264 278.358V278.367ZM38.162 291.41C37.8443 291.607 37.4303 291.706 36.9103 291.706C36.3518 291.706 35.8896 291.553 35.5237 291.249C35.1578 290.944 34.8882 290.398 34.6957 289.627L34.2431 287.719C34.089 287.047 33.9253 286.537 33.7905 286.187C33.6461 285.829 33.4247 285.542 33.1358 285.327C32.8469 285.112 32.4425 285.005 31.9225 285.005H29.9583V289.412C29.9583 289.887 30.0064 290.245 30.0835 290.46C30.1701 290.684 30.3242 290.828 30.5456 290.908C30.7671 290.989 31.1234 291.043 31.6241 291.052V291.437C30.9982 291.401 30.122 291.383 29.005 291.383C27.8207 291.383 26.9444 291.401 26.3763 291.437V291.052C26.8674 291.034 27.2333 290.98 27.4548 290.908C27.6762 290.837 27.8399 290.675 27.917 290.46C28.0036 290.236 28.0421 289.887 28.0421 289.412V279.908C28.0421 279.433 27.994 279.075 27.917 278.86C27.8303 278.636 27.6762 278.492 27.4548 278.412C27.2333 278.331 26.877 278.277 26.3763 278.268V277.883C26.9541 277.919 27.7918 277.937 28.8895 277.937C29.1302 277.937 29.8716 277.928 31.1234 277.91H31.9996C33.078 277.901 33.9831 278.036 34.7245 278.331C35.466 278.627 36.0341 279.021 36.4096 279.523C36.7851 280.024 36.9681 280.589 36.9681 281.234C36.9681 281.735 36.8429 282.237 36.5829 282.747C36.3326 283.258 35.8993 283.715 35.3023 284.118C34.7053 284.521 33.9253 284.79 32.9625 284.924L33.2128 284.96C33.8291 285.05 34.3201 285.193 34.6957 285.381C35.0712 285.569 35.36 285.829 35.5815 286.17C35.803 286.492 35.9763 286.94 36.1111 287.486L36.6214 289.448C36.7081 289.842 36.8044 290.147 36.8814 290.371C36.9584 290.595 37.0836 290.756 37.1992 290.864C37.3243 290.971 37.4784 291.025 37.671 291.025C37.8924 291.025 38.085 290.971 38.2294 290.855C38.3835 290.747 38.5665 290.559 38.7879 290.29L39.1057 290.505C38.7879 290.935 38.4702 291.249 38.1524 291.446V291.428L38.162 291.41Z" fill="white"/>
<path d="M50.4292 291.428C49.4952 291.392 47.9257 291.374 45.7111 291.374C43.0824 291.374 41.0796 291.392 39.7316 291.428V291.043C40.2226 291.025 40.5885 290.971 40.81 290.899C41.0315 290.828 41.1952 290.667 41.2722 290.452C41.3588 290.228 41.3974 289.878 41.3974 289.403V279.899C41.3974 279.424 41.3492 279.066 41.2722 278.851C41.1855 278.627 41.0315 278.483 40.81 278.403C40.5885 278.322 40.2323 278.268 39.7316 278.259V277.874C41.0892 277.91 43.0728 277.928 45.7111 277.928C47.7331 277.928 49.1582 277.91 50.0248 277.874C49.9285 278.707 49.8804 279.469 49.8804 280.141C49.8804 280.642 49.8996 281.036 49.9381 281.332H49.4663C49.37 280.499 49.2449 279.89 49.0812 279.478C48.9271 279.066 48.6768 278.779 48.3109 278.591C47.945 278.403 47.4154 278.313 46.6836 278.313H44.9697C44.4786 278.313 44.1127 278.349 43.8912 278.421C43.6698 278.501 43.5061 278.645 43.4291 278.86C43.3424 279.075 43.3039 279.424 43.3039 279.908V284.423H44.6712C45.1526 284.423 45.5185 284.315 45.7881 284.1C46.0481 283.894 46.2214 283.643 46.3081 283.348C46.3947 283.052 46.4718 282.694 46.5295 282.264C46.5295 282.156 46.5488 282.031 46.5777 281.887H47.0495C47.0013 282.524 46.9725 283.115 46.9725 283.697V284.611C46.9821 285.265 47.0206 286.17 47.1073 287.334H46.6354L46.6066 287.065C46.5488 286.555 46.4718 286.161 46.3755 285.856C46.2792 285.56 46.0962 285.31 45.8363 285.103C45.5763 284.897 45.1815 284.799 44.6615 284.799H43.2942V289.403C43.2942 289.878 43.3424 290.237 43.4194 290.452C43.5061 290.667 43.6601 290.81 43.8816 290.89C44.1031 290.971 44.4593 290.998 44.96 290.998H46.4718C47.3287 290.998 47.9835 290.89 48.4264 290.675C48.879 290.469 49.1967 290.12 49.3893 289.654C49.5819 289.188 49.7359 288.499 49.8418 287.594H50.3137C50.2752 287.934 50.2559 288.4 50.2559 288.973C50.2559 289.699 50.304 290.514 50.4003 291.419V291.428H50.4292Z" fill="white"/>
<path d="M57.1886 280.185L54.8296 285.91H59.4995L57.1982 280.185H57.1886ZM64.5451 291.043V291.428C63.9866 291.392 63.2452 291.374 62.3304 291.374C61.1557 291.374 60.2795 291.392 59.7017 291.428V291.043C60.2217 291.025 60.5972 290.962 60.8283 290.864C61.0594 290.765 61.1653 290.586 61.1653 290.326C61.1653 290.102 61.0787 289.807 60.9246 289.43L59.6536 286.277H54.6851L53.8378 288.311C53.5586 288.964 53.4237 289.484 53.4237 289.878C53.4237 290.272 53.5682 290.577 53.857 290.747C54.1459 290.917 54.5985 291.007 55.2147 291.034V291.419C54.4251 291.383 53.6356 291.365 52.8364 291.365C52.2201 291.365 51.7098 291.383 51.2958 291.419V291.034C51.9794 290.89 52.5186 290.335 52.9134 289.368L57.7664 277.749H58.0937L63.1104 289.807C63.4474 290.595 63.9192 291.007 64.5354 291.034H64.5547L64.5451 291.043Z" fill="white"/>
<path d="M75.4257 280.302C75.4257 280.938 75.4449 281.466 75.4834 281.87H75.0116C74.9057 280.875 74.7709 280.141 74.6072 279.666C74.4435 279.191 74.1547 278.842 73.7406 278.618C73.3266 278.394 72.6911 278.286 71.8437 278.286H70.7268V289.188C70.7268 289.726 70.7749 290.102 70.8809 290.353C70.9868 290.595 71.189 290.774 71.4586 290.864C71.7378 290.953 72.1808 291.007 72.797 291.034V291.419C72.0748 291.383 71.0638 291.365 69.7639 291.365C68.387 291.365 67.376 291.383 66.7116 291.419V291.034C67.3278 291.016 67.7707 290.953 68.05 290.864C68.3292 290.774 68.5218 290.604 68.6277 290.353C68.7336 290.111 68.7818 289.717 68.7818 289.188V278.286H67.6648C66.8175 278.286 66.182 278.394 65.7679 278.618C65.3539 278.842 65.065 279.191 64.9013 279.666C64.7377 280.141 64.6028 280.884 64.4969 281.87H64.0251C64.0636 281.466 64.0829 280.938 64.0829 280.302C64.0829 279.549 64.0348 278.734 63.9288 277.856C65.0747 277.892 67.0101 277.91 69.7446 277.91C72.4792 277.91 74.3954 277.892 75.5219 277.856C75.4257 278.77 75.3775 279.585 75.3775 280.302H75.3968H75.4257Z" fill="white"/>
<path d="M81.203 278.385C80.9815 278.465 80.8178 278.618 80.7408 278.833C80.6541 279.057 80.6156 279.406 80.6156 279.881V289.385C80.6156 289.86 80.6638 290.219 80.7408 290.434C80.8275 290.658 80.9815 290.801 81.203 290.881C81.4244 290.962 81.7807 291.016 82.2814 291.025V291.41C81.6555 291.374 80.7793 291.356 79.6624 291.356C78.478 291.356 77.6018 291.374 77.0337 291.41V291.025C77.5248 291.007 77.8907 290.953 78.1121 290.881C78.3336 290.81 78.4973 290.649 78.5743 290.434C78.661 290.21 78.6995 289.86 78.6995 289.385V279.881C78.6995 279.406 78.6513 279.048 78.5743 278.833C78.4877 278.609 78.3336 278.465 78.1121 278.385C77.8907 278.304 77.5344 278.25 77.0337 278.242V277.856C77.6018 277.892 78.4876 277.91 79.6624 277.91C80.7793 277.91 81.6459 277.892 82.2814 277.856V278.242C81.7903 278.259 81.4244 278.313 81.203 278.385Z" fill="white"/>
<path d="M96.2914 277.847V278.233C95.6077 278.376 95.0589 278.931 94.6641 279.899L89.8304 291.518H89.503L84.4768 279.46C84.1398 278.672 83.668 278.259 83.0613 278.233V277.847C83.6198 277.883 84.3516 277.901 85.2664 277.901C86.4507 277.901 87.3269 277.883 87.895 277.847V278.233C87.3751 278.25 86.9995 278.313 86.7684 278.412C86.5374 278.51 86.4314 278.689 86.4314 278.949C86.4314 279.155 86.5181 279.46 86.6722 279.845L90.4081 289.054L93.7686 280.956C94.0479 280.293 94.1827 279.773 94.1827 279.388C94.1827 278.985 94.0286 278.689 93.7397 278.51C93.4412 278.331 92.9887 278.242 92.3821 278.224V277.838C93.1716 277.874 93.9612 277.892 94.7604 277.892C95.3766 277.892 95.8966 277.874 96.3106 277.838H96.301L96.2914 277.847Z" fill="white"/>
<path d="M107.692 291.428C106.758 291.392 105.188 291.374 102.974 291.374C100.345 291.374 98.3423 291.392 96.9943 291.428V291.043C97.4853 291.025 97.8512 290.971 98.0727 290.899C98.2942 290.828 98.4579 290.667 98.5349 290.452C98.6119 290.237 98.6601 289.878 98.6601 289.403V279.899C98.6601 279.424 98.6119 279.066 98.5349 278.851C98.4482 278.627 98.2942 278.483 98.0727 278.403C97.8512 278.322 97.495 278.268 96.9943 278.259V277.874C98.3519 277.91 100.335 277.928 102.974 277.928C104.996 277.928 106.421 277.91 107.287 277.874C107.191 278.707 107.143 279.469 107.143 280.141C107.143 280.642 107.162 281.036 107.201 281.332H106.729C106.633 280.499 106.508 279.89 106.344 279.478C106.19 279.066 105.939 278.779 105.574 278.591C105.217 278.403 104.678 278.313 103.946 278.313H102.232C101.741 278.313 101.375 278.349 101.154 278.421C100.932 278.501 100.769 278.645 100.692 278.86C100.605 279.075 100.567 279.424 100.567 279.908V284.423H101.934C102.415 284.423 102.781 284.315 103.051 284.1C103.311 283.894 103.484 283.643 103.571 283.348C103.657 283.061 103.734 282.694 103.792 282.264C103.792 282.156 103.811 282.031 103.84 281.887H104.312C104.264 282.524 104.235 283.115 104.235 283.697V284.611C104.245 285.265 104.283 286.17 104.37 287.334H103.898L103.869 287.065C103.811 286.555 103.734 286.161 103.638 285.856C103.542 285.56 103.359 285.31 103.099 285.103C102.839 284.897 102.444 284.799 101.924 284.799H100.557V289.403C100.557 289.878 100.605 290.237 100.682 290.452C100.769 290.667 100.923 290.81 101.144 290.89C101.366 290.971 101.722 290.998 102.223 290.998H103.734C104.591 290.998 105.246 290.89 105.689 290.675C106.142 290.469 106.459 290.12 106.652 289.654C106.845 289.188 106.999 288.499 107.105 287.594H107.576C107.538 287.934 107.519 288.4 107.519 288.973C107.519 289.699 107.567 290.514 107.663 291.419V291.428H107.692Z" fill="white"/>
<path d="M115.039 277.731C115.347 277.803 115.597 277.874 115.799 277.973C116.002 278.071 116.223 278.197 116.464 278.34C116.772 278.519 117.013 278.609 117.167 278.609C117.292 278.609 117.388 278.537 117.456 278.403C117.523 278.268 117.571 278.053 117.61 277.767H118.081C118.014 278.519 117.985 279.827 117.985 281.681H117.513C117.465 281.028 117.311 280.418 117.061 279.872C116.81 279.316 116.444 278.869 115.953 278.519C115.472 278.17 114.865 278 114.134 278C113.652 278 113.219 278.089 112.834 278.286C112.449 278.483 112.15 278.734 111.938 279.075C111.717 279.415 111.62 279.8 111.62 280.239C111.62 280.723 111.736 281.144 111.977 281.502C112.217 281.861 112.526 282.174 112.891 282.434C113.267 282.694 113.787 283.016 114.471 283.41L115.087 283.76C115.953 284.27 116.637 284.709 117.138 285.077C117.648 285.453 118.043 285.874 118.341 286.367C118.649 286.859 118.794 287.433 118.794 288.078C118.794 288.866 118.601 289.529 118.216 290.075C117.831 290.622 117.301 291.034 116.637 291.303C115.973 291.58 115.241 291.715 114.422 291.715C113.768 291.715 113.228 291.652 112.805 291.526C112.381 291.401 111.986 291.222 111.611 291.007C111.303 290.828 111.062 290.738 110.908 290.738C110.783 290.738 110.686 290.81 110.619 290.944C110.552 291.079 110.503 291.294 110.465 291.58H109.993C110.041 290.881 110.08 289.35 110.08 286.985H110.552C110.648 288.284 110.985 289.332 111.572 290.138C112.16 290.944 113.074 291.338 114.297 291.338C114.769 291.338 115.212 291.249 115.607 291.07C116.011 290.89 116.339 290.613 116.589 290.219C116.839 289.824 116.974 289.359 116.974 288.785C116.974 288.293 116.849 287.854 116.589 287.468C116.329 287.083 115.982 286.716 115.539 286.402C115.096 286.08 114.499 285.713 113.768 285.301C112.949 284.844 112.285 284.432 111.794 284.073C111.303 283.715 110.889 283.285 110.571 282.774C110.253 282.273 110.089 281.681 110.089 281.001C110.089 280.275 110.272 279.666 110.619 279.164C110.966 278.663 111.437 278.295 112.034 278.044C112.612 277.803 113.267 277.677 113.98 277.677C114.403 277.677 114.769 277.704 115.068 277.776H115.058L115.039 277.749V277.731Z" fill="white"/>
<path d="M400.842 121.725L430.788 156.581L432.068 158.372L433.349 156.581L463.295 121.725H467.454L434.148 160.603L467.136 199.034H462.977L433.358 164.473L432.078 162.681L430.797 164.473L401.179 199.034H397.019L430.008 160.603L396.701 121.725H400.861H400.842Z" fill="white"/>
</svg>
